# xmcd
#
# Track frame offsets: 
#        150
#        24231
#        45810
#        59877
#        82456
#        101561
#        119413
#        147845
#        163309
#        176899
#        200948
#        216295
#        235693
#        256101
#        274251
#        285491
#        301990
#        322621
#
# Disc length: 4526 seconds
#
# Revision: 0
# Processed by: cddbd v1.5.1PL0 Copyright (c) Steve Scherf et al.
# Submitted via: ExactAudioCopy v0.90b4
#
DISCID=0c11ac12
DTITLE=A Crossroads Deal - Headin' For Ten
DYEAR=2003
DGENRE=Blues
TTITLE0=Worried Life Blues
TTITLE1=Lump On Your Stump
TTITLE2=In The Middle Of The Night
TTITLE3=Ruby Mae
TTITLE4=Rock This Place
TTITLE5=Same Old Blues
TTITLE6=All Thos Evil Words
TTITLE7=Blind Man Blues
TTITLE8=Bookhurst Boogie
TTITLE9=Mama
TTITLE10=You're Playing Hooky
TTITLE11=I'm Ready
TTITLE12=It Ain't Right
TTITLE13=Headin' For Ten
TTITLE14=Highschool Jump
TTITLE15=Business Blues
TTITLE16=Shake A Hand
TTITLE17=Ain't Nobody's Business
EXTD=
EXTT0=
EXTT1=
EXTT2=
EXTT3=
EXTT4=
EXTT5=
EXTT6=
EXTT7=
EXTT8=
EXTT9=
EXTT10=
EXTT11=
EXTT12=
EXTT13=
EXTT14=
EXTT15=
EXTT16=
EXTT17=
PLAYORDER=
